<?xml version="1.0" encoding="UTF-8"?>
<svg xmlns="http://www.w3.org/2000/svg" xmlns:xlink="http://www.w3.org/1999/xlink" width="120pt" height="205pt" viewBox="0 0 120 205" version="1.1">
<g id="surface1">
<path style=" stroke:none;fill-rule:nonzero;fill:rgb(0%,0%,0%);fill-opacity:1;" d="M 53.097656 190.753906 C 51.574219 188.4375 50.316406 186.296875 50.304688 185.996094 C 50.292969 185.699219 49.777344 177.121094 49.15625 166.9375 C 48.539062 156.753906 48.082031 148.359375 48.140625 148.285156 C 48.199219 148.207031 50.027344 148.292969 52.203125 148.476562 L 56.164062 148.804688 L 56.292969 171.4375 C 56.367188 183.886719 56.300781 194.273438 56.148438 194.519531 C 55.996094 194.765625 54.625 193.070312 53.097656 190.753906 Z M 79.667969 154.5 C 76.132812 153.984375 73.148438 152.789062 71.78125 151.332031 C 71.15625 150.671875 70.246094 150.128906 69.753906 150.128906 C 69.265625 150.128906 68.863281 149.800781 68.863281 149.398438 C 68.863281 148.945312 69.324219 148.667969 70.074219 148.667969 C 70.992188 148.667969 71.519531 148.203125 72.265625 146.742188 C 73.078125 145.152344 73.875 144.519531 76.789062 143.148438 C 81.023438 141.15625 82.523438 140.65625 82.523438 141.242188 C 82.523438 141.992188 79.542969 146.207031 78.445312 147.015625 C 77.300781 147.855469 77.199219 147.863281 80.683594 146.894531 C 81.152344 146.761719 81.742188 145.851562 82.015625 144.839844 C 82.328125 143.675781 83.757812 141.664062 85.96875 139.265625 C 89.648438 135.277344 91.066406 134.523438 90.515625 136.851562 C 90.1875 138.234375 89.289062 140.902344 88.605469 142.53125 C 88.222656 143.433594 88.253906 143.433594 89.695312 142.582031 C 91.015625 141.804688 91.207031 141.390625 91.4375 138.867188 C 91.632812 136.71875 92.246094 135.019531 93.964844 131.871094 C 95.210938 129.585938 96.457031 127.714844 96.730469 127.714844 C 97.042969 127.714844 97.167969 129.359375 97.070312 132.144531 L 96.914062 136.570312 L 98.21875 135.003906 C 99.28125 133.730469 99.441406 133.21875 99.074219 132.25 C 98.824219 131.597656 98.621094 130.050781 98.621094 128.816406 C 98.621094 125.65625 100.21875 117.972656 100.875 117.972656 C 101.550781 117.972656 102.554688 121.441406 102.953125 125.164062 L 103.253906 127.960938 L 104.320312 125.410156 C 105.019531 123.738281 105.210938 122.753906 104.875 122.546875 C 104.59375 122.371094 103.953125 121.300781 103.449219 120.167969 C 102.378906 117.75 101.546875 108.226562 102.40625 108.226562 C 103.085938 108.226562 105.601562 112.332031 106.445312 114.808594 L 107.101562 116.753906 L 107.515625 114.386719 C 107.832031 112.566406 107.773438 111.890625 107.25 111.460938 C 106.875 111.15625 105.96875 110.089844 105.230469 109.09375 C 103.679688 106.992188 100.878906 98.816406 101.621094 98.550781 C 102.238281 98.332031 104.632812 100.550781 106.539062 103.109375 L 107.992188 105.058594 L 107.640625 102.867188 C 107.445312 101.660156 107.070312 100.59375 106.808594 100.496094 C 105 99.820312 97.105469 90.089844 97.804688 89.390625 C 98.105469 89.089844 100.707031 90.414062 103.355469 92.226562 L 105.402344 93.625 L 104.898438 92.179688 C 104.550781 91.175781 103.71875 90.40625 102.175781 89.664062 C 100.957031 89.074219 98.289062 87.253906 96.253906 85.617188 C 92.816406 82.859375 92.644531 82.636719 93.851562 82.496094 C 94.566406 82.414062 96.46875 82.875 98.078125 83.523438 L 101.007812 84.707031 L 99.800781 83.128906 C 98.808594 81.828125 98.1875 81.511719 96.261719 81.328125 C 93.777344 81.089844 86.914062 78.203125 86.914062 77.394531 C 86.914062 77.101562 88.34375 77.007812 90.582031 77.152344 C 94.128906 77.378906 94.222656 77.355469 93.433594 76.484375 C 92.757812 75.738281 91.84375 75.574219 88.179688 75.539062 C 85.738281 75.515625 82.644531 75.335938 81.304688 75.136719 L 78.863281 74.78125 L 80.328125 74.132812 C 81.132812 73.78125 83.402344 73.359375 85.375 73.195312 L 88.957031 72.902344 L 87.570312 71.882812 C 86.804688 71.320312 85.304688 70.703125 84.230469 70.503906 C 82.742188 70.230469 81.640625 69.488281 79.597656 67.390625 C 76.464844 64.171875 76.863281 63.777344 81.554688 65.453125 C 83.992188 66.324219 84.945312 66.96875 85.914062 68.390625 C 86.597656 69.390625 87.6875 70.582031 88.339844 71.035156 C 89.476562 71.828125 89.507812 71.824219 89.125 70.921875 C 88.097656 68.507812 87.300781 65.777344 87.546875 65.53125 C 88.003906 65.074219 92.160156 68.1875 93.582031 70.042969 C 94.46875 71.207031 94.925781 72.421875 94.960938 73.695312 C 94.992188 75.03125 95.367188 75.964844 96.207031 76.804688 L 97.40625 78.003906 L 97.230469 74.113281 C 97.117188 71.648438 97.238281 70.222656 97.558594 70.222656 C 98.226562 70.222656 100.855469 73.441406 101.785156 75.394531 C 102.605469 77.125 102.78125 81.464844 102.054688 82.1875 C 101.761719 82.484375 101.980469 83.273438 102.667969 84.355469 L 103.742188 86.058594 L 103.867188 84.597656 C 104.085938 82.074219 105.589844 77.496094 106.140625 77.675781 C 106.789062 77.886719 108.796875 84.527344 108.824219 86.546875 C 108.835938 87.347656 108.402344 88.972656 107.867188 90.15625 C 107.027344 92 106.972656 92.554688 107.464844 94.046875 L 108.039062 95.789062 L 108.648438 94.027344 C 109.332031 92.058594 111.726562 88.25 112.28125 88.25 C 112.742188 88.25 113.242188 91.285156 113.246094 94.097656 C 113.25 97.324219 112.378906 99.90625 110.804688 101.347656 C 109.570312 102.476562 109.441406 102.859375 109.6875 104.679688 L 109.964844 106.738281 L 111.429688 104.679688 C 114.199219 100.796875 116.964844 99.175781 116.390625 101.769531 C 114.691406 109.457031 113.757812 111.433594 111.035156 113.113281 C 110.109375 113.683594 109.347656 114.300781 109.339844 114.480469 C 109.332031 114.65625 109.140625 115.609375 108.910156 116.59375 L 108.496094 118.386719 L 112.585938 115.664062 C 114.835938 114.171875 116.800781 113.066406 116.949219 113.214844 C 117.097656 113.363281 116.34375 115.21875 115.277344 117.339844 C 113.171875 121.523438 110.503906 124.335938 107.792969 125.230469 C 106.257812 125.738281 105.597656 126.550781 104.070312 129.820312 C 103.964844 130.042969 104.949219 129.691406 106.25 129.046875 C 108.96875 127.695312 112.898438 126.542969 113.777344 126.835938 C 114.113281 126.945312 112.691406 128.753906 110.523438 130.976562 C 106.574219 135.015625 104.785156 135.988281 101.28125 135.996094 C 100.160156 135.996094 99.269531 136.546875 97.625 138.25 C 96.429688 139.488281 95.894531 140.273438 96.441406 139.996094 C 97.582031 139.414062 107.324219 138.195312 107.714844 138.585938 C 108.082031 138.953125 103.695312 142.097656 101.09375 143.339844 C 98.457031 144.59375 94.359375 145.078125 92.335938 144.375 C 91.03125 143.921875 90.449219 144.054688 87.777344 145.429688 L 84.71875 147.003906 L 87.402344 147.003906 C 90.433594 147 97.5625 148.136719 97.894531 148.675781 C 98.347656 149.410156 91.96875 150.824219 88.132812 150.84375 C 84.914062 150.855469 83.882812 150.660156 82.238281 149.71875 C 80.523438 148.738281 79.941406 148.640625 78.089844 149.015625 L 75.9375 149.453125 L 80.1875 151.457031 C 82.527344 152.558594 84.933594 153.804688 85.539062 154.230469 C 86.613281 154.980469 86.582031 155 84.460938 154.941406 C 83.261719 154.90625 81.105469 154.707031 79.667969 154.5 Z M 47.59375 145.792969 C 34.742188 142.636719 24.316406 132.667969 20.277344 119.675781 C 18.976562 115.492188 18.972656 102.929688 20.269531 98.726562 C 24.324219 85.589844 34.617188 75.738281 47.644531 72.511719 C 51.558594 71.542969 56.054688 71.675781 56.667969 71.691406 C 57.832031 71.726562 58.65625 71.789062 61.050781 72.042969 C 72.855469 73.296875 85.039062 80.882812 90.835938 93.253906 C 95.597656 103.425781 95.421875 115.757812 90.359375 126.011719 C 85.546875 135.769531 76.46875 143.042969 65.738281 145.746094 C 60.785156 146.992188 52.558594 147.015625 47.59375 145.792969 Z M 55.597656 140.078125 C 57.535156 138.945312 58.15625 138.828125 61.097656 139.039062 C 62.921875 139.167969 64.589844 139.113281 64.808594 138.914062 C 65.027344 138.714844 66.238281 138.445312 67.503906 138.3125 C 69.332031 138.121094 69.96875 138.257812 70.628906 138.984375 C 71.757812 140.234375 72.027344 140.175781 75.496094 137.917969 C 81.671875 133.898438 85.648438 128.203125 82.277344 128.203125 C 79.964844 128.203125 81.144531 124.617188 84.515625 121.390625 C 87.132812 118.882812 87.859375 118.492188 87.925781 119.554688 C 87.957031 120.042969 88.015625 120.042969 88.210938 119.554688 C 88.347656 119.21875 88.769531 118.945312 89.148438 118.945312 C 89.933594 118.945312 90.09375 117.210938 89.351562 116.753906 C 89.082031 116.585938 88.863281 116.726562 88.863281 117.0625 C 88.863281 117.398438 88.152344 116.898438 87.277344 115.945312 C 86.40625 114.996094 85.695312 114.027344 85.695312 113.792969 C 85.695312 113.183594 87.933594 113.5625 89.082031 114.367188 C 89.617188 114.742188 90.195312 115.046875 90.367188 115.046875 C 90.957031 115.046875 91.230469 108.9375 90.804688 105.304688 C 90.570312 103.292969 90.019531 100.476562 89.585938 99.042969 C 88.933594 96.890625 88.699219 96.5625 88.222656 97.167969 C 86.8125 98.953125 84.539062 98.390625 83.503906 96.003906 C 83.042969 94.9375 83.019531 94.972656 83.246094 96.410156 C 83.386719 97.28125 83.636719 98.671875 83.804688 99.496094 C 84.179688 101.351562 83.191406 103.355469 81.898438 103.355469 C 81.195312 103.355469 81.042969 103.570312 81.300781 104.207031 C 81.964844 105.859375 82.179688 108.714844 81.632812 108.714844 C 80.621094 108.714844 78.621094 107.578125 78.621094 107.007812 C 78.621094 106.6875 78.195312 106.042969 77.671875 105.570312 C 77.152344 105.101562 76.644531 104.136719 76.546875 103.425781 L 76.371094 102.136719 L 76.011719 103.597656 C 74.863281 108.25 74.660156 108.714844 73.777344 108.714844 C 72.925781 108.714844 72.710938 108.207031 72.117188 104.753906 C 71.925781 103.636719 70.398438 101.40625 69.828125 101.40625 C 69.566406 101.40625 69.351562 101.960938 69.351562 102.640625 C 69.351562 103.398438 68.699219 104.523438 67.660156 105.5625 C 66.203125 107.019531 66.105469 107.253906 66.953125 107.253906 C 67.816406 107.253906 67.894531 107.46875 67.621094 109.078125 C 67.449219 110.085938 66.890625 111.5 66.378906 112.226562 C 65.722656 113.160156 65.453125 114.371094 65.457031 116.367188 C 65.460938 118.191406 65.617188 118.949219 65.894531 118.507812 C 66.476562 117.59375 67.886719 118.195312 67.886719 119.355469 C 67.886719 120.480469 66.097656 124.636719 65.4375 125.042969 C 65.15625 125.21875 64.957031 124.382812 64.945312 122.992188 C 64.933594 120.828125 64.875 120.722656 64.214844 121.597656 C 63.820312 122.117188 63.5 123.125 63.5 123.835938 C 63.5 125.792969 62.117188 128.164062 60.78125 128.5 C 58.226562 129.140625 58.09375 128.753906 57.1875 118.214844 C 56.957031 115.535156 56.515625 112.667969 56.210938 111.847656 C 55.730469 110.546875 55.46875 110.378906 54.191406 110.5625 C 51.84375 110.910156 50.976562 109.714844 50.589844 105.589844 C 50.246094 101.929688 50.867188 99.335938 52.515625 97.515625 C 52.980469 97.003906 53.054688 96.519531 52.75 96.035156 C 52.5 95.640625 52.289062 94.710938 52.285156 93.976562 C 52.28125 93 52.519531 92.636719 53.171875 92.636719 C 53.839844 92.636719 54.066406 92.265625 54.066406 91.175781 C 54.066406 90.082031 53.839844 89.710938 53.171875 89.710938 C 52.035156 89.710938 52.066406 89.277344 53.304688 87.789062 C 54.125 86.804688 54.375 86.71875 54.746094 87.300781 C 54.988281 87.691406 55.195312 88.132812 55.199219 88.289062 C 55.203125 88.441406 55.867188 88.472656 56.679688 88.351562 C 58.132812 88.140625 58.140625 88.128906 57.167969 87.285156 C 55.761719 86.066406 55.9375 85.15625 57.90625 83.429688 C 59.820312 81.75 61.277344 81.523438 62.574219 82.695312 C 63.707031 83.71875 64.402344 83.234375 64.097656 81.632812 C 63.851562 80.339844 64.539062 79.503906 65.867188 79.488281 C 66.332031 79.484375 66.4375 79.84375 66.226562 80.699219 C 65.855469 82.175781 65.941406 82.183594 68.453125 80.902344 C 69.921875 80.15625 70.300781 79.746094 69.898438 79.34375 C 69.125 78.570312 69.21875 78.117188 70.207031 77.910156 C 71.53125 77.628906 65.160156 75.664062 60.886719 75.035156 C 57.972656 74.609375 56.070312 74.613281 52.945312 75.046875 C 48.777344 75.632812 42.308594 77.550781 41.375 78.484375 C 40.558594 79.296875 42.558594 79.113281 43.46875 78.289062 C 43.898438 77.902344 45.121094 77.597656 46.191406 77.613281 C 47.257812 77.625 50.054688 77.601562 52.402344 77.554688 C 55.75 77.488281 56.667969 77.617188 56.667969 78.144531 C 56.667969 79.003906 49.886719 86.300781 49.089844 86.300781 C 48.375 86.300781 47.90625 84.757812 47.894531 82.378906 C 47.886719 80.59375 47.191406 79.480469 46.082031 79.480469 C 45.167969 79.480469 45.304688 80.359375 46.4375 81.800781 L 47.425781 83.054688 L 46.140625 84.394531 C 44.921875 85.667969 44.894531 85.796875 45.640625 86.859375 C 46.738281 88.429688 46.695312 92.09375 45.570312 92.441406 C 42.789062 93.304688 41.441406 94.234375 40.816406 95.722656 C 40.445312 96.613281 39.796875 97.625 39.378906 97.972656 C 38.960938 98.316406 38.621094 99.34375 38.621094 100.246094 C 38.621094 101.386719 38.394531 101.894531 37.886719 101.894531 C 37.433594 101.894531 37.15625 101.433594 37.15625 100.675781 C 37.15625 98.960938 35.890625 99.125 34.9375 100.964844 C 34.074219 102.628906 34.28125 103.109375 35.859375 103.109375 C 36.621094 103.109375 36.871094 103.363281 36.757812 104.023438 C 36.476562 105.640625 37.679688 107.800781 38.8125 107.710938 C 41.152344 107.53125 41.804688 107.910156 45.53125 111.601562 C 48.945312 114.984375 49.363281 115.582031 48.902344 116.441406 C 48.613281 116.980469 48.375 118.519531 48.375 119.859375 C 48.375 121.765625 48.15625 122.453125 47.378906 123 C 46.800781 123.402344 46.261719 124.484375 46.089844 125.582031 C 45.929688 126.621094 45.421875 128.238281 44.960938 129.175781 C 43.84375 131.460938 43.417969 134.453125 44.050781 135.632812 C 44.660156 136.769531 44.019531 137.628906 42.894531 137.199219 C 41.445312 136.644531 40.644531 133.488281 40.101562 126.179688 C 39.761719 121.613281 39.519531 120.636719 38.09375 118.042969 C 36.507812 115.167969 36.484375 115.042969 37.101562 112.648438 L 37.730469 110.199219 L 35.902344 107.972656 C 34.898438 106.75 33.472656 105.320312 32.734375 104.792969 C 29.492188 102.488281 27.910156 96.011719 29.597656 91.980469 C 30.375 90.117188 30.574219 87.761719 29.953125 87.761719 C 29.367188 87.761719 25.710938 94.039062 24.558594 97.019531 C 23.988281 98.496094 23.304688 100.6875 23.035156 101.894531 C 22.304688 105.175781 22.433594 113.882812 23.269531 117.414062 C 24.042969 120.699219 26.511719 126.011719 28.820312 129.351562 C 31.75 133.597656 38.820312 139.324219 40.390625 138.722656 C 40.839844 138.550781 41.964844 138.65625 42.890625 138.964844 C 44.359375 139.449219 44.75 139.386719 45.96875 138.488281 C 47.859375 137.089844 48.765625 137.183594 48.953125 138.789062 C 49.113281 140.167969 50.722656 141.335938 52.480469 141.351562 C 52.992188 141.355469 54.394531 140.78125 55.597656 140.078125 Z M 80.644531 115.605469 C 79.707031 114.730469 79.109375 113.691406 79.109375 112.945312 C 79.109375 112.269531 78.875 111.640625 78.589844 111.546875 C 78.226562 111.425781 78.222656 110.972656 78.578125 110.042969 C 79.433594 107.796875 80.527344 108.480469 81.03125 111.578125 L 81.304688 113.257812 L 82.644531 110.796875 C 83.570312 109.101562 83.992188 107.605469 84.003906 105.96875 L 84.023438 103.597656 L 84.945312 105.4375 C 86.351562 108.25 86.671875 110.175781 85.730469 110.175781 C 85.308594 110.175781 84.960938 109.847656 84.960938 109.445312 C 84.960938 109.042969 84.773438 108.714844 84.539062 108.714844 C 84.308594 108.714844 84.289062 109.644531 84.5 110.785156 C 84.722656 111.984375 84.695312 112.921875 84.433594 113.019531 C 84.1875 113.105469 83.984375 113.480469 83.984375 113.847656 C 83.984375 114.210938 83.601562 114.734375 83.132812 115.007812 C 82.328125 115.476562 82.332031 115.507812 83.171875 115.519531 C 83.667969 115.527344 83.976562 115.808594 83.863281 116.144531 C 83.488281 117.269531 82.195312 117.050781 80.644531 115.605469 Z M 82.035156 114.589844 C 82.035156 114.335938 81.816406 113.996094 81.546875 113.828125 C 81.277344 113.664062 81.058594 113.871094 81.058594 114.289062 C 81.058594 114.707031 81.277344 115.046875 81.546875 115.046875 C 81.816406 115.046875 82.035156 114.839844 82.035156 114.589844 Z M 62.320312 97.929688 C 62.714844 97.292969 61.332031 96.402344 59.660156 96.222656 C 59.027344 96.15625 58.191406 95.648438 57.804688 95.097656 C 56.984375 93.933594 55.695312 93.765625 55.695312 94.828125 C 55.695312 95.230469 56.007812 95.558594 56.390625 95.558594 C 56.773438 95.558594 57.488281 96.070312 57.984375 96.699219 C 59.320312 98.394531 61.625 99.050781 62.320312 97.929688 Z M 86.410156 93.976562 C 86.394531 91.621094 86.335938 91.492188 85.679688 92.363281 C 84.914062 93.371094 84.773438 94.507812 85.257812 95.761719 C 85.859375 97.332031 86.425781 96.457031 86.410156 93.976562 Z M 41.960938 86.027344 C 42.410156 85.035156 42.402344 84.851562 41.917969 85.128906 C 40.605469 85.878906 40.105469 86.429688 40.363281 86.84375 C 40.828125 87.59375 41.371094 87.316406 41.960938 86.027344 Z M 43.324219 68.335938 C 42.667969 61.425781 43.242188 60.042969 46.949219 59.546875 C 48.667969 59.316406 49.222656 58.992188 49.738281 57.921875 C 50.332031 56.679688 50.597656 56.582031 53.28125 56.582031 L 56.179688 56.582031 L 56.179688 69.597656 L 52.402344 69.914062 C 50.320312 70.09375 47.496094 70.535156 46.125 70.898438 L 43.628906 71.5625 Z M 35.785156 50.011719 C 31.289062 44.402344 30.894531 43.734375 31.78125 43.1875 C 32.4375 42.78125 33.589844 43.460938 38.425781 47.101562 L 42.597656 50.246094 L 49.632812 49.925781 L 56.667969 49.609375 L 56.667969 55.605469 L 40.265625 55.605469 Z M 51.425781 47.125 C 50.453125 46.101562 50.328125 45.464844 50.328125 41.546875 C 50.328125 34.527344 49.328125 20.054688 48.640625 17.070312 C 47.71875 13.082031 48.058594 12.730469 52.847656 12.730469 L 56.78125 12.730469 L 56.398438 14.3125 C 55.914062 16.316406 55.925781 43.449219 56.410156 46.226562 L 56.769531 48.296875 L 54.648438 48.289062 C 53.050781 48.285156 52.25 47.992188 51.425781 47.125 Z M 52.730469 11.339844 L 51.613281 10.433594 L 53.027344 9.753906 C 54.386719 9.101562 54.664062 8.535156 55.433594 4.8125 C 56.019531 1.992188 56.667969 3.59375 56.667969 7.859375 L 56.667969 12.242188 L 55.257812 12.242188 C 54.484375 12.242188 53.347656 11.835938 52.730469 11.339844 Z M 52.730469 11.339844 "/>
</g>
</svg>
